# xmcd
#
# Track frame offsets:
#	150
#	20279
#	38657
#	53776
#	70857
#
# Disc length: 1259 seconds
#
# Revision: 0
# Processed by: cddbd v1.5.2PL0 Copyright (c) Steve Scherf et al.
# Submitted via: EZCDAudioConverter 1.1.0.1
#
DISCID=3604e905
DTITLE=Nina Attal - Urgency
DYEAR=2010
DGENRE=Blues
TTITLE0=My soul won't cry no more
TTITLE1=Sexy'n'crazy
TTITLE2=Lonely man
TTITLE3=Output
TTITLE4=Hopeful
EXTD=
EXTT0=
EXTT1=
EXTT2=
EXTT3=
EXTT4=
PLAYORDER=
